<?xml version="1.0" encoding="utf-8"?>
<!-- Generator: Adobe Illustrator 24.2.1, SVG Export Plug-In . SVG Version: 6.00 Build 0)  -->
<svg version="1.1" id="Layer_1" xmlns="http://www.w3.org/2000/svg" xmlns:xlink="http://www.w3.org/1999/xlink" x="0px" y="0px"
	 viewBox="0 0 401 46.5" style="enable-background:new 0 0 401 46.5;" xml:space="preserve">
<style type="text/css">
	.st0{fill:#FFFFFF;}
</style>
<path class="st0" d="M0,35.1V0.4h3.3v32.3h9.9v2.4H0z"/>
<path class="st0" d="M33.7,35.1V0.4h3.2v34.7H33.7z"/>
<path class="st0" d="M60.2,35.1V0.4h2.4l11.1,27v-27h2.8v34.7h-2.3L63,7.8v27.3H60.2z"/>
<path class="st0" d="M99.7,35.1V0.4h12.5v2.5H103v13h7.6v2.4H103v14.3h9.4v2.4H99.7z"/>
<path class="st0" d="M132.1,35.1l7.3-34.7h3.4l7.4,34.7H147l-1.7-9.3H137l-1.8,9.3H132.1z M137.5,23.4h7.4l-3.7-18.7L137.5,23.4z"/>
<path class="st0" d="M171.6,35.1V0.4h7.9c3.1,0,5.3,0.7,6.6,2.2c1.3,1.5,2,3.7,2,6.5c0,4.8-1.6,7.5-4.8,8.2l5.4,17.8h-3.2L180.3,18
	h-5.4v17.1H171.6z M174.9,15.6h4.4c2.1,0,3.6-0.5,4.4-1.5s1.2-2.7,1.2-4.9s-0.4-3.8-1.2-4.8s-2.2-1.5-4.3-1.5h-4.5V15.6z"/>
<path class="st0" d="M244,35.5c-2.4,0.2-4.7-0.7-6.3-2.5c-1.5-2-2.4-4.4-2.5-6.9l2.9-0.8c0.1,0.9,0.2,1.7,0.4,2.4
	c0.1,0.7,0.4,1.4,0.6,2.1c0.2,0.6,0.6,1.2,1,1.7c0.4,0.4,1,0.8,1.6,1c0.7,0.3,1.4,0.4,2.2,0.4c3.3,0,4.9-1.7,4.9-5
	c0-0.7-0.1-1.4-0.3-2.1c-0.2-0.7-0.5-1.3-0.9-1.9c-0.4-0.6-0.8-1.1-1.3-1.7c-0.5-0.5-1-1.1-1.8-1.8l-6.2-5.9c-2-1.8-3.1-4.3-3.1-7
	c-0.1-2,0.6-4,2.1-5.5c1.6-1.4,3.6-2.1,5.7-2h0.1c2.1-0.2,4.2,0.6,5.8,2c1.4,1.4,2.2,3.7,2.4,6.8l-2.8,0.7c-0.1-1.8-0.6-3.6-1.5-5.2
	c-0.9-1.2-2.3-1.8-3.8-1.7h-0.2c-1.3,0-2.6,0.4-3.6,1.2c-0.9,0.9-1.4,2.1-1.3,3.4c0,0.9,0.2,1.8,0.6,2.6c0.5,0.9,1.1,1.8,1.9,2.5
	l6.1,5.8c1.4,1.3,2.7,2.9,3.7,4.6c0.9,1.5,1.4,3.2,1.4,5c0.1,2.2-0.7,4.3-2.2,5.8C248.2,34.9,246.2,35.6,244,35.5z"/>
<path class="st0" d="M271.6,35.1L279,0.4h3.4l7.4,34.7h-3.2l-1.7-9.3h-8.3l-1.8,9.3H271.6z M277,23.4h7.4l-3.7-18.7L277,23.4z"/>
<path class="st0" d="M311.1,35.1V0.4h3.3v32.3h9.9v2.4H311.1z"/>
<path class="st0" d="M352.9,35.5c-1.5,0-2.9-0.2-4.3-0.8c-1.1-0.5-2.1-1.2-2.8-2.2c-0.7-1-1.2-2.2-1.4-3.3c-0.3-1.4-0.5-2.9-0.4-4.3
	V10.4c0-1.4,0.1-2.9,0.5-4.3c0.3-1.2,0.8-2.3,1.5-3.3c0.7-1,1.7-1.7,2.8-2.2c2.7-1,5.7-1,8.5,0c1.1,0.4,2.1,1.2,2.8,2.2
	c0.7,1,1.2,2.1,1.5,3.3c0.3,1.4,0.5,2.8,0.5,4.3v14.4c0,1.2-0.1,2.4-0.3,3.5c-0.2,1-0.5,2-0.9,2.9c-0.4,0.9-1,1.6-1.6,2.3
	c-0.7,0.6-1.6,1.1-2.5,1.4C355.3,35.4,354.1,35.6,352.9,35.5z M350.1,32.4c1.8,0.7,3.8,0.7,5.6,0c0.7-0.3,1.3-0.9,1.7-1.5
	c0.4-0.7,0.7-1.5,0.8-2.3c0.2-1,0.3-2,0.2-3V9.8c0-1-0.1-2-0.2-3c-0.1-0.8-0.4-1.6-0.8-2.2c-0.4-0.7-1-1.2-1.7-1.5
	c-1.8-0.7-3.8-0.7-5.6,0c-0.7,0.3-1.3,0.8-1.7,1.5c-0.4,0.7-0.7,1.5-0.8,2.2c-0.2,1-0.3,2-0.2,3v15.7c0,1,0.1,2,0.2,3
	c0.1,0.8,0.4,1.6,0.8,2.3C348.8,31.5,349.4,32.1,350.1,32.4z"/>
<path class="st0" d="M384.3,35.1V0.4h2.4l11.1,27v-27h2.8v34.7h-2.3L387.1,7.8v27.3H384.3z"/>
<path class="st0" d="M57.5,46.4h11.6v-3.1H57.5V46.4z M84.1,46.4h11.6v-3.1H84.1V46.4z M110.5,46.4h11.6v-3.1h-11.6L110.5,46.4z
	 M136.9,46.5h28.7v-3.2h-28.7V46.5z M180.1,46.5h36v-3.2h-36V46.5z M230.4,46.5H276v-3.2h-45.6V46.5z M291,46.5h45.6v-3.2H291V46.5z
	 M351.2,43.3v3.2H401v-3.2H351.2z"/>
</svg>
