<?xml version="1.0" encoding="UTF-8"?>
<svg enable-background="new 0 0 600.1 169.6" version="1.1" viewBox="0 0 600.1 169.6" xml:space="preserve" xmlns="http://www.w3.org/2000/svg">
<style type="text/css">
	.st0{fill:#152128;}
</style>
<path class="st0" d="m103.5 22.8h-4l15-16.5c1.1-1.2 2-2.2 2.9-3.2 1.1-0.8 1.9-2.2 3.2-2.3 1.9-0.5 4.2 0.6 4.8 2.8 0.3 0.9 0.6 2.8-0.2 3.6-0.6 1.4-1.9 2.2-2.9 2.9l-18.8 12.7zm381.3 98.3h-12l-12.8-35.7h-29.4l-13.3 35.7h-8.2l37.2-92.5h2.8l35.7 92.5zm-39.5-75.2-12.7 33.8h25.5l-12.8-33.8zm-155.4 75.2h-12l-12.8-35.7h-29.3l-13.3 35.7h-8.3l37.2-92.5h2.8l35.7 92.5zm-39.5-75.2-12.7 33.8h25.5l-12.8-33.8zm28.7 123.7h-3.5l-3.9-10.8h-8.8l-4 10.8h-2.5l11.1-27.8h0.8l10.8 27.8zm-11.9-22.7-3.9 10.2h7.6l-3.7-10.2zm332.9-32.5s-0.2 4.9 0 6.2h-43.1v-90.2h42.3v6.2h-31.8v33.2h29v5.9h-29v38.6l32.6 0.1zm-468.3 0s-0.2 4.9 0 6.2h-43.1v-90.2h42.3v6.2h-31.8v33.2h29v5.9h-29v38.6l32.6 0.1zm380.4 8.4c-7.3 0-13.6-1.5-19-4.8v-11.4c2.8 3.4 10 11.4 21 11.4 13.3 0 19.3-9.3 19.3-18.4 0-11.3-7.3-15.4-15.8-19-13.3-5.9-16.7-7.3-19.9-10.3-3.9-3.2-6.2-9.6-6.2-16.2 0-17.6 13.7-25.5 27.5-25.5 8 0 14.7 2.6 17.5 4v11c-2.5-3.1-9.6-10.5-19-10.5-16.2 0-16.7 14.4-16.7 15.9 0 11.1 8.8 14.8 14.8 17.5 13 5.3 16.5 6.6 20.7 10.3 5.7 4.8 6.9 11.7 6.9 16.7-0.1 14.6-9.7 29.3-31.1 29.3m-160.6 46.8c-2.2 0-4-0.5-5.7-1.4v-3.4c0.9 1.1 2.9 3.4 6.3 3.4 4 0 5.7-2.8 5.7-5.6 0-3.4-2.2-4.6-4.8-5.7-4-1.7-5.1-2.2-6-3.1-1.1-0.9-1.9-2.8-1.9-4.8 0-5.3 4.2-7.6 8.2-7.6 2.5 0 4.5 0.8 5.3 1.2v3.2c-0.8-0.9-2.9-3.1-5.7-3.1-4.9 0-5.1 4.3-5.1 4.8 0 3.4 2.6 4.5 4.5 5.3 3.9 1.5 4.9 2 6.2 3.1 1.7 1.4 2 3.6 2 5.1 0.2 4.1-2.6 8.6-9 8.6m-34.9-46.4c-7.3 0-13.6-1.5-19-4.8v-11.4c2.9 3.4 10 11.4 21 11.4 13.3 0 19.3-9.3 19.3-18.4 0-11.3-7.3-15.4-15.6-19-13.3-5.9-16.7-7.3-19.9-10.3-3.9-3.2-6.2-9.6-6.2-16.2 0-17.6 13.7-25.5 27.5-25.5 8 0 14.7 2.6 17.5 4v11c-2.5-3.1-9.6-10.5-19-10.5-16.2 0-16.7 14.4-16.7 15.9 0 11.1 8.8 14.8 14.8 17.5 13 5.3 16.5 6.6 20.7 10.3 5.7 4.8 6.8 11.7 6.8 16.7-0.1 14.5-9.8 29.3-31.2 29.3m97.6-92.8h-61.5v5.9h26.1v84.9h10.5v-84.9h24.9v-5.9zm-236.8 45.3c12-2.3 25.3-9.3 25.3-24.6 0-13.4-10.5-20.7-27.5-20.7h-25.1v90.7h10.5v-44.2h4.5l9.6 12.5 14.1 20.2c2.5 3.7 4.9 7.4 7.6 11.6 2.2-0.2 13.7 0 13.7 0s-32.7-45.5-32.7-45.5zm-9.9-3.6c-2.8 0.2-4.6 0.2-6.9-0.2v-36.6h9.9c9.3 0 21.6 1.5 21.6 17.1 0 18.6-18.9 19.4-24.6 19.7zm72.5 83.9c3.6-0.8 7.6-2.8 7.6-7.4 0-4-3.1-6.2-8.2-6.2h-7.6v27.2h3.1v-13.3h1.4c1.5 0 3.6-0.3 3.7-0.3zm-3.1-1.1h-2v-11h2.9c2.8 0 6.5 0.5 6.5 5.1 0 5.6-5.7 5.7-7.4 5.9zm66.1 1.1c3.6-0.8 7.6-2.8 7.6-7.4 0-4-3.1-6.2-8.2-6.2h-7.6v27.2h3.1v-13.3h1.4l2.9 3.7 4.2 6c0.8 1.1 1.5 2.2 2.3 3.4h4.2l-9.9-13.4zm-3-1.1h-2v-11h2.9c2.8 0 6.5 0.5 6.5 5.1-0.1 5.6-5.7 5.7-7.4 5.9zm-276-100.6 53.1-54.2h-13.3l-48.8 54.8s-1.4 1.5-2.3 1.5v-56.4h-12.8v120.9h12.8v-61.6c0.9 0.2 1.9 1.4 1.9 1.4l46.9 60.2h17l-54.5-66.6zm303.4 87.9h3.1v27.3h-3.1v-27.3z"/>
</svg>
