<?xml version="1.0" encoding="UTF-8"?>
<svg viewBox="0 0 978.89 140.43" xmlns="http://www.w3.org/2000/svg">
<defs>
<style>.cls-1{fill:#fff;}</style>
</defs>
<g data-name="Layer 2">
<g data-name="Layer 1">
<path class="cls-1" d="M978.89,140.43H0V0H978.89ZM477.37,88.57l-.56-.06c-.29-.94-.61-1.89-.88-2.84-5.39-19.26-10.81-38.5-16.13-57.78-.55-2-1.39-2.68-3.5-2.64-6.54.15-13.09.12-19.64,0-1.91,0-2.48.58-2.45,2.47.1,6.52,0,13.05,0,19.58,0,20.6,0,41.2-.06,61.79,0,2.26.62,3,2.87,2.85,3.65-.18,7.31-.16,11,0,2.13.09,2.74-.63,2.73-2.74-.08-18.22-.05-36.45-.05-54.67,0-.85.09-1.7.14-2.55a2.73,2.73,0,0,1,1.1,1.62c5.17,18.53,10.37,37,15.44,55.6.59,2.16,1.54,2.83,3.69,2.74a102.24,102.24,0,0,1,11.48,0c2.83.21,3.91-.83,4.63-3.5,4.94-18.23,10.05-36.42,15.13-54.62a11.52,11.52,0,0,1,.84-1.78,9.23,9.23,0,0,1,.48,3.48c0,17.89,0,35.78-.06,53.66,0,2.11.6,2.82,2.73,2.74,3.74-.15,7.49-.15,11.22,0,2.11.08,2.78-.58,2.76-2.72-.1-10.93,0-21.87,0-32.8,0-16.19,0-32.39,0-48.58,0-1.76-.33-2.61-2.36-2.58-6.89.1-13.78.07-20.66,0a2.3,2.3,0,0,0-2.65,2q-7.41,26.7-15,53.36C478.91,83.31,478.13,85.94,477.37,88.57ZM337.26,52.39l.65-.19c.54.9,1.1,1.78,1.62,2.69q15.84,27.44,31.65,54.9a3.58,3.58,0,0,0,3.58,2.16c5.19-.12,10.38-.1,15.57,0,1.74,0,2.37-.49,2.37-2.3q-.07-41.08,0-82.16c0-1.67-.55-2.23-2.2-2.2-3.91.09-7.84.17-11.74,0-2.45-.12-3.16.65-3.15,3.12.11,18.06.07,36.12.06,54.18,0,.78-.09,1.56-.14,2.35a5,5,0,0,1-1.84-2q-15.92-27.7-31.78-55.42a3.74,3.74,0,0,0-3.78-2.26c-5,.12-10,.15-15.05,0-2.28-.07-2.86.63-2.84,2.87.09,17,0,34.08,0,51.13,0,10,.06,20,0,30,0,2.16.65,2.78,2.74,2.69,3.74-.15,7.49-.17,11.22,0,2.37.12,3-.66,3-3-.09-18-.05-35.95-.05-53.93C337.14,54.14,337.22,53.26,337.26,52.39ZM672.3,71a54.84,54.84,0,0,0,5-3.74c7.62-7.25,8-16.2,5.06-25.39-3.28-10.2-13.41-16.49-25.66-16.56-13.34-.08-26.7,0-40.05-.06-2.12,0-2.74.62-2.72,2.73.1,10.68,0,21.36,0,32.05,0,16.36,0,32.72-.05,49.08,0,2.29.69,2.92,2.9,2.82a108.28,108.28,0,0,1,11,0c2.56.15,3.09-.8,3.05-3.17-.13-9.23,0-18.48-.06-27.72,0-1.32-.11-2.52,1.87-2.5,7.48.08,15-.13,22.45.13,6.14.21,9.23,3.7,9.31,9.82.05,4.07-.13,8.14.05,12.2a80.86,80.86,0,0,0,1.14,9.3c.11.67.92,1.74,1.44,1.76,5.23.13,10.48.08,16.25.08-2.67-7.08-2-14-2-21C681.35,83,679.76,75.87,672.3,71Zm-536-2.31c0,13.39,0,26.78,0,40.18,0,2.21.42,3.09,2.91,3.07q29.6-.15,59.18,0c2,0,2.91-.47,2.79-2.67a88.94,88.94,0,0,1,0-9.66c.13-2.41-.63-3.22-3.14-3.2-14,.1-28.06,0-42.09.1-2.25,0-2.93-.65-2.87-2.89.15-5.33.16-10.68,0-16-.07-2.35.65-3,3-3,11.39.11,22.79,0,34.18.09,2.16,0,3.08-.46,2.94-2.8a98.57,98.57,0,0,1,0-10.17c.1-2.14-.66-2.74-2.76-2.72-11.48.09-23,0-34.44.09-2.18,0-3-.5-2.93-2.82.18-4.06,0-8.13,0-12.2,0-3.32,0-3.32,3.36-3.32,13.61,0,27.22,0,40.82.05,2.25,0,3-.66,2.88-2.9a96.35,96.35,0,0,1,0-9.91c.11-2.17-.7-2.71-2.77-2.7q-29.2.09-58.42,0c-2.14,0-2.73.65-2.72,2.75C136.32,41.58,136.28,55.14,136.27,68.71Zm634.33-.28c0,13.57.06,27.13-.05,40.7,0,2.28.66,2.92,2.89,2.82,3.82-.17,7.65-.15,11.48,0,2.15.08,2.74-.67,2.72-2.76-.09-10.26,0-20.52-.09-30.78,0-2.26.54-3.12,3-3.09q15.44.18,30.87,0c2.35,0,3.06.65,3,3-.12,10.34,0,20.69-.1,31,0,2,.66,2.64,2.63,2.58,4-.12,8-.1,12,0,1.81,0,2.33-.63,2.32-2.37q-.06-41,0-81.91c0-1.75-.51-2.43-2.32-2.38-4,.09-8,.11-12,0-2-.05-2.65.53-2.63,2.59.1,9.83,0,19.67.09,29.5,0,2-.56,2.63-2.59,2.62Q806,59.85,790.2,60c-2.24,0-2.66-.85-2.64-2.84.08-9.75,0-19.5.08-29.25,0-2-.59-2.69-2.61-2.62-3.91.13-7.83.14-11.74,0-2.11-.08-2.75.59-2.73,2.71C770.64,41.47,770.6,55,770.6,68.43ZM128.72,111.91c-.85-1.24-1.29-1.92-1.76-2.56-11-15.06-22-30.15-33.15-45.15-1.47-2-1.61-3.11.29-5,10.57-10.56,21-21.29,31.42-32a19.09,19.09,0,0,0,1.38-1.92c-6.93,0-13.29.09-19.65,0a6.39,6.39,0,0,0-5.31,2.26C94.34,35.75,86.66,43.91,79,52.08c-2.22,2.36-4.48,4.69-6.72,7l-.69-.31V56.14c0-9.5,0-19,0-28.49,0-1.74-.48-2.42-2.3-2.37-4.17.1-8.34.08-12.51,0-1.56,0-2,.57-2,2.09q0,41.21,0,82.42c0,1.7.62,2.18,2.24,2.15,3.91-.09,7.83-.15,11.73,0,2.21.09,3-.53,2.91-2.83-.13-8.05-.06-16.11,0-24.16,0-.91-.09-2.1.42-2.68,2.46-2.86,5.12-5.57,7.87-8.51.77,1,1.32,1.59,1.79,2.27C89.6,87.28,97.54,98.5,105.37,109.8a4.36,4.36,0,0,0,4.19,2.15c4.25-.13,8.51,0,12.76,0Zm472-57h.2c0-9.07,0-18.14,0-27.21,0-1.9-.62-2.52-2.49-2.47-3.83.11-7.66.18-11.48,0-2.45-.13-3.14.62-3.13,3.09.11,16.95.09,33.9,0,50.85,0,4.83-.82,9.57-4.27,13.24-5.22,5.56-11.85,5.79-18.66,4-6.25-1.63-9.15-6.37-10.2-12.39a33.24,33.24,0,0,1-.46-5.81q-.06-25.17,0-50.34c0-2-.49-2.74-2.57-2.65-3.74.15-7.49.18-11.22,0-2.42-.12-3.19.58-3.17,3.08.12,15.93,0,31.87.09,47.8a69.46,69.46,0,0,0,.63,9.88c1.33,8.86,4.87,16.57,12.53,21.85,11,7.56,29.94,7.65,40.9.07,9.25-6.4,12.69-15.89,13.13-26.56C601,72.58,600.7,63.76,600.7,55Zm95.21,13.57c0,13.65,0,27.3,0,41,0,1.89.52,2.54,2.45,2.48,3.82-.14,7.66-.18,11.48,0,2.35.11,2.83-.78,2.8-2.93-.11-8.48,0-17-.09-25.44,0-2,.57-2.66,2.59-2.62,6.3.11,12.59.07,18.89,0a28,28,0,0,0,16.55-5.1c8.27-5.93,11.18-14.33,11-24.16-.3-15.49-11.24-26.36-26.78-26.42-12-.05-24,0-36-.06-2.18,0-2.92.49-2.9,2.81C696,41.55,695.91,55,695.91,68.52ZM283.26,25.31c-5.37,0-10.29.07-15.2,0-1.9,0-2.82.48-3.39,2.45-5.13,17.57-10.39,35.1-15.61,52.64-1,3.36-2,6.71-3,10.07a5,5,0,0,1-1.41-2.35q-8.51-28.5-17-57c-1.73-5.78-1.79-5.76-7.78-5.76H208.21c.25,1,.36,1.55.54,2.09q3.17,9.66,6.36,19.32C222,67.48,228.87,88.23,235.65,109c.72,2.23,1.72,3.08,4.12,2.94a109.28,109.28,0,0,1,11.73,0c2.42.12,3.54-.61,4.32-3,5.92-18.39,12-36.73,18.06-55.08C277,44.52,280,35.2,283.26,25.31Zm564,0c.51,1.1.74,1.7,1.05,2.27Q861.74,52,875.09,76.47a10.7,10.7,0,0,1,1.25,4.79q.17,14.11,0,28.23c0,1.9.56,2.52,2.47,2.46,3.82-.13,7.66-.18,11.48,0,2.4.11,3.23-.54,3.19-3.08-.15-9.24-.12-18.48,0-27.72a10.73,10.73,0,0,1,1.24-4.8C902.47,62,910.34,47.78,918.17,33.5c1.4-2.56,2.77-5.15,4.41-8.19-5.91,0-11.25.07-16.58,0a3.35,3.35,0,0,0-3.52,2.19c-5.4,10.76-10.91,21.47-16.39,32.19-.31.62-.73,1.17-1.27,2-.49-.82-.77-1.22-1-1.66-5.52-10.8-11.07-21.59-16.52-32.43-.83-1.65-1.78-2.4-3.69-2.31-3.4.15-6.81,0-10.21,0ZM308,68.68c0-13.64,0-27.28,0-40.91,0-1.84-.41-2.58-2.39-2.5-3.9.14-7.82.14-11.72,0-2.14-.08-2.76.64-2.74,2.74.1,9.49,0,19,0,28.46,0,17.54,0,35.07,0,52.61,0,2.22.59,3,2.86,2.87,3.82-.17,7.65-.16,11.47,0,2.1.1,2.53-.67,2.52-2.61C308,95.79,308,82.23,308,68.68ZM413.3,111.91c2.37,0,4.74-.06,7.12,0,1.43,0,1.93-.51,1.91-1.93-.06-4.56-.05-9.13,0-13.69,0-1.48-.49-2.15-2.05-2.14-4.67.06-9.33,0-14,0-1.44,0-1.93.64-1.92,2,0,4.65-.05,9.3.09,13.94a2.51,2.51,0,0,0,1.73,1.7C408.54,112,410.92,111.9,413.3,111.91Z"/>
<path d="M477.37,88.57c.76-2.63,1.54-5.26,2.28-7.9q7.5-26.68,15-53.36a2.3,2.3,0,0,1,2.65-2c6.88.05,13.77.08,20.66,0,2,0,2.36.82,2.36,2.58-.06,16.19,0,32.39,0,48.58,0,10.93-.05,21.87,0,32.8,0,2.14-.65,2.8-2.76,2.72-3.73-.15-7.48-.15-11.22,0-2.13.08-2.74-.63-2.73-2.74.08-17.88.05-35.77.06-53.66a9.23,9.23,0,0,0-.48-3.48,11.52,11.52,0,0,0-.84,1.78c-5.08,18.2-10.19,36.39-15.13,54.62-.72,2.67-1.8,3.71-4.63,3.5a102.24,102.24,0,0,0-11.48,0c-2.15.09-3.1-.58-3.69-2.74-5.07-18.56-10.27-37.07-15.44-55.6a2.73,2.73,0,0,0-1.1-1.62c0,.85-.14,1.7-.14,2.55,0,18.22,0,36.45.05,54.67,0,2.11-.6,2.83-2.73,2.74-3.65-.15-7.31-.17-11,0-2.25.11-2.88-.59-2.87-2.85.09-20.59.06-41.19.06-61.79,0-6.53.06-13.06,0-19.58,0-1.89.54-2.5,2.45-2.47,6.55.1,13.1.13,19.64,0,2.11,0,2.95.66,3.5,2.64,5.32,19.28,10.74,38.52,16.13,57.78.27,1,.59,1.9.88,2.84Z"/>
<path d="M337.26,52.39c0,.87-.12,1.75-.12,2.62,0,18,0,36,.05,53.93,0,2.35-.63,3.13-3,3-3.73-.17-7.48-.15-11.22,0-2.09.09-2.77-.53-2.74-2.69.11-10,0-20,0-30,0-17,0-34.09,0-51.13,0-2.24.56-2.94,2.84-2.87,5,.17,10,.14,15.05,0a3.74,3.74,0,0,1,3.78,2.26Q357.73,55.28,373.68,83a5,5,0,0,0,1.84,2c.05-.79.14-1.57.14-2.35,0-18.06,0-36.12-.06-54.18,0-2.47.7-3.24,3.15-3.12,3.9.2,7.83.12,11.74,0,1.65,0,2.2.53,2.2,2.2q-.06,41.07,0,82.16c0,1.81-.63,2.33-2.37,2.3-5.19-.09-10.38-.11-15.57,0a3.58,3.58,0,0,1-3.58-2.16q-15.76-27.48-31.65-54.9c-.52-.91-1.08-1.79-1.62-2.69Z"/>
<path d="M672.3,71c7.46,4.85,9.05,12,9,19.88-.06,6.91-.69,13.88,2,21-5.77,0-11,0-16.25-.08-.52,0-1.33-1.09-1.44-1.76a80.86,80.86,0,0,1-1.14-9.3c-.18-4.06,0-8.13-.05-12.2-.08-6.12-3.17-9.61-9.31-9.82-7.48-.26-15,0-22.45-.13-2,0-1.87,1.18-1.87,2.5,0,9.24-.07,18.49.06,27.72,0,2.37-.49,3.32-3.05,3.17a108.28,108.28,0,0,0-11,0c-2.21.1-2.92-.53-2.9-2.82.1-16.36.05-32.72.05-49.08,0-10.69.06-21.37,0-32,0-2.11.6-2.75,2.72-2.73,13.35.08,26.71,0,40.05.06,12.25.07,22.38,6.36,25.66,16.56,2.95,9.19,2.56,18.14-5.06,25.39A54.84,54.84,0,0,1,672.3,71Zm-28.22-30v-.33c-3.65,0-7.3.06-10.94,0-1.72,0-2.43.46-2.4,2.29q.13,9.13,0,18.27c0,1.77.56,2.35,2.34,2.33,7-.09,14.09,0,21.13-.09a18.23,18.23,0,0,0,5.7-1.14c5.37-1.93,7.75-6.31,7.09-12.58-.5-4.82-3.88-8.19-9.45-8.65C653.09,40.76,648.58,41.06,644.08,41.06Z"/>
<path d="M136.27,68.71c0-13.57,0-27.13,0-40.69,0-2.1.58-2.76,2.72-2.75q29.2.11,58.42,0c2.07,0,2.88.53,2.77,2.7a96.35,96.35,0,0,0,0,9.91c.12,2.24-.63,2.91-2.88,2.9-13.6-.1-27.21-.05-40.82-.05-3.36,0-3.36,0-3.36,3.32,0,4.07.13,8.14,0,12.2-.1,2.32.75,2.84,2.93,2.82,11.48-.1,23,0,34.44-.09,2.1,0,2.86.58,2.76,2.72a98.57,98.57,0,0,0,0,10.17c.14,2.34-.78,2.82-2.94,2.8-11.39-.09-22.79,0-34.18-.09-2.36,0-3.08.67-3,3,.16,5.34.15,10.69,0,16-.06,2.24.62,2.9,2.87,2.89,14-.1,28.06,0,42.09-.1,2.51,0,3.27.79,3.14,3.2a88.94,88.94,0,0,0,0,9.66c.12,2.2-.75,2.68-2.79,2.67q-29.59-.09-59.18,0c-2.49,0-2.92-.86-2.91-3.07C136.32,95.49,136.27,82.1,136.27,68.71Z"/>
<path d="M770.6,68.43c0-13.48,0-27,0-40.45,0-2.12.62-2.79,2.73-2.71,3.91.14,7.83.13,11.74,0,2-.07,2.63.6,2.61,2.62-.09,9.75,0,19.5-.08,29.25,0,2,.4,2.86,2.64,2.84q15.82-.15,31.64,0c2,0,2.61-.62,2.59-2.62-.09-9.83,0-19.67-.09-29.5,0-2.06.66-2.64,2.63-2.59,4,.12,8,.1,12,0,1.81-.05,2.32.63,2.32,2.38q-.06,41,0,81.91c0,1.74-.51,2.41-2.32,2.37-4-.1-8-.12-12,0-2,.06-2.65-.53-2.63-2.58.1-10.34,0-20.69.1-31,0-2.36-.69-3-3-3q-15.43.18-30.87,0c-2.44,0-3,.83-3,3.09.1,10.26,0,20.52.09,30.78,0,2.09-.57,2.84-2.72,2.76-3.83-.15-7.66-.17-11.48,0-2.23.1-2.91-.54-2.89-2.82C770.66,95.56,770.6,82,770.6,68.43Z"/>
<path d="M128.72,111.91h-6.4c-4.25,0-8.51-.09-12.76,0a4.36,4.36,0,0,1-4.19-2.15C97.54,98.5,89.6,87.28,81.68,76c-.47-.68-1-1.3-1.79-2.27-2.75,2.94-5.41,5.65-7.87,8.51-.51.58-.41,1.77-.42,2.68,0,8.05-.09,16.11,0,24.16,0,2.3-.7,2.92-2.91,2.83-3.9-.16-7.82-.1-11.73,0-1.62,0-2.25-.45-2.24-2.15q.06-41.22,0-82.42c0-1.52.48-2.11,2-2.09,4.17.08,8.34.1,12.51,0,1.82-.05,2.31.63,2.3,2.37-.07,9.5,0,19,0,28.49v2.67l.69.31c2.24-2.35,4.5-4.68,6.72-7,7.66-8.17,15.34-16.33,22.94-24.56a6.39,6.39,0,0,1,5.31-2.26c6.36.14,12.72,0,19.65,0a19.09,19.09,0,0,1-1.38,1.92c-10.45,10.68-20.85,21.41-31.42,32-1.9,1.89-1.76,3-.29,5,11.12,15,22.12,30.09,33.15,45.15C127.43,110,127.87,110.67,128.72,111.91Z"/>
<path d="M600.7,55c0,8.81.28,17.63-.08,26.43-.44,10.67-3.88,20.16-13.13,26.56-11,7.58-29.94,7.49-40.9-.07-7.66-5.28-11.2-13-12.53-21.85a69.46,69.46,0,0,1-.63-9.88c-.06-15.93,0-31.87-.09-47.8,0-2.5.75-3.2,3.17-3.08,3.73.19,7.48.16,11.22,0,2.08-.09,2.57.7,2.57,2.65q-.1,25.17,0,50.34a33.24,33.24,0,0,0,.46,5.81c1,6,4,10.76,10.2,12.39,6.81,1.77,13.44,1.54,18.66-4,3.45-3.67,4.26-8.41,4.27-13.24.06-17,.08-33.9,0-50.85,0-2.47.68-3.22,3.13-3.09,3.82.19,7.65.12,11.48,0,1.87-.05,2.51.57,2.49,2.47-.08,9.07,0,18.14,0,27.21Z"/>
<path d="M695.91,68.52c0-13.49.06-27,0-40.45,0-2.32.72-2.83,2.9-2.81,12,.1,24,0,36,.06,15.54.06,26.48,10.93,26.78,26.42.2,9.83-2.71,18.23-11,24.16A28,28,0,0,1,734,81c-6.3,0-12.59.08-18.89,0-2,0-2.61.61-2.59,2.62.1,8.48,0,17,.09,25.44,0,2.15-.45,3-2.8,2.93-3.82-.19-7.66-.15-11.48,0-1.93.06-2.46-.59-2.45-2.48C695.94,95.82,695.91,82.17,695.91,68.52Zm16.64-15.3c0,3.47,0,6.94,0,10.4,0,1.45.4,2.19,2,2.18,6.36-.06,12.74.13,19.1-.09s9.92-3.56,10.92-9.62c1.42-8.62-2.38-14.58-10.33-15.16-6.67-.49-13.4-.2-20.11-.1-.53,0-1.46,1.27-1.5,2C712.47,46.27,712.55,49.75,712.55,53.22Z"/>
<path d="M283.26,25.31C280,35.2,277,44.52,273.88,53.85c-6,18.35-12.14,36.69-18.06,55.08-.78,2.42-1.9,3.15-4.32,3a109.28,109.28,0,0,0-11.73,0c-2.4.14-3.4-.71-4.12-2.94-6.78-20.8-13.68-41.55-20.54-62.31q-3.18-9.66-6.36-19.32c-.18-.54-.29-1.11-.54-2.09h11.62c6,0,6,0,7.78,5.76q8.53,28.5,17,57A5,5,0,0,0,246,90.43c1-3.36,2-6.71,3-10.07,5.22-17.54,10.48-35.07,15.61-52.64.57-2,1.49-2.49,3.39-2.45C273,25.38,277.89,25.31,283.26,25.31Z"/>
<path d="M847.3,25.31h6.11c3.4,0,6.81.11,10.21,0,1.91-.09,2.86.66,3.69,2.31,5.45,10.84,11,21.63,16.52,32.43.22.44.5.84,1,1.66.54-.85,1-1.4,1.27-2,5.48-10.72,11-21.43,16.39-32.19A3.35,3.35,0,0,1,906,25.27c5.33.11,10.67,0,16.58,0-1.64,3-3,5.63-4.41,8.19-7.83,14.28-15.7,28.54-23.45,42.86a10.73,10.73,0,0,0-1.24,4.8c-.11,9.24-.14,18.48,0,27.72,0,2.54-.79,3.19-3.19,3.08-3.82-.19-7.66-.14-11.48,0-1.91.06-2.48-.56-2.47-2.46q.14-14.11,0-28.23a10.7,10.7,0,0,0-1.25-4.79Q861.8,52,848.35,27.58C848,27,847.81,26.41,847.3,25.31Z"/>
<path d="m308 68.68v40.66c0 1.94-0.42 2.71-2.52 2.61-3.82-0.16-7.65-0.17-11.47 0-2.27 0.11-2.87-0.65-2.86-2.87 0.08-17.54 0.05-35.07 0-52.61 0-9.48 0.06-19 0-28.46 0-2.1 0.6-2.82 2.74-2.74 3.9 0.14 7.82 0.14 11.72 0 2-0.08 2.4 0.66 2.39 2.5v40.91z"/>
<path d="m413.3 111.9c-2.38 0-4.76 0.13-7.12-0.08a2.51 2.51 0 0 1-1.73-1.7c-0.14-4.64-0.06-9.29-0.09-13.94 0-1.36 0.48-2 1.92-2h14c1.56 0 2.07 0.66 2.05 2.14 0 4.56-0.05 9.13 0 13.69 0 1.42-0.48 2-1.91 1.93-2.42-0.09-4.75-0.03-7.12-0.04z"/>
<path class="cls-1" d="M644.08,41.06c4.5,0,9-.3,13.47.07,5.57.46,9,3.83,9.45,8.65.66,6.27-1.72,10.65-7.09,12.58a18.23,18.23,0,0,1-5.7,1.14c-7,.13-14.08,0-21.13.09-1.78,0-2.36-.56-2.34-2.33q.12-9.13,0-18.27c0-1.83.68-2.33,2.4-2.29,3.64.09,7.29,0,10.94,0Z"/>
<path class="cls-1" d="M712.55,53.22c0-3.47-.08-6.95.07-10.41,0-.71,1-2,1.5-2,6.71-.1,13.44-.39,20.11.1,7.95.58,11.75,6.54,10.33,15.16-1,6.06-4.58,9.4-10.92,9.62s-12.74,0-19.1.09c-1.61,0-2-.73-2-2.18C712.59,60.16,712.55,56.69,712.55,53.22Z"/>
</g>
</g>
</svg>
